<?xml version="1.0" encoding="UTF-8" standalone="no"?>
<!DOCTYPE svg PUBLIC "-//W3C//DTD SVG 1.1//EN" "http://www.w3.org/Graphics/SVG/1.1/DTD/svg11.dtd">
<svg width="100%" height="100%" viewBox="0 0 1019 210" version="1.1" xmlns="http://www.w3.org/2000/svg" xmlns:xlink="http://www.w3.org/1999/xlink" xml:space="preserve" xmlns:serif="http://www.serif.com/" style="fill-rule:evenodd;clip-rule:evenodd;stroke-linejoin:round;stroke-miterlimit:2;">
    <g transform="matrix(1,0,0,1,-240.991,-145.032)">
        <g>
            <g transform="matrix(0.534848,0,0,0.534848,202.77,122.034)">
                <g>
                    <path d="M238.23,435.112C229.993,437.168 231,430.8 231,428.6C231,426.45 233.35,423.35 236.05,421.95C237.15,421.45 244.75,416.5 246.5,414.25C248.6,411.6 249.654,409.242 247.6,410.203C246.007,410.948 234.3,417.5 232.55,417.5C229.75,417.5 228.5,416.4 228.5,413.85C228.5,411.65 229.771,409.867 230.9,409C233.074,407.33 249.7,397.35 250.85,396.55C252.95,395.15 252.95,395.15 247.85,394.8C245.935,394.671 221.594,392.962 197.512,384C175.072,375.649 152.907,360.15 147.977,356.25C136.742,347.362 127.459,337.025 125.05,334.8C123.1,333 122.85,332.9 121.6,333.5C119.45,334.5 100.95,340.25 92.75,340.25C82.9,340.25 82.5,340.1 82.5,336.25C82.5,330.409 108.75,321.3 110.4,321C114.3,320.2 114.561,318.5 114.45,316.6C114.251,313.204 111.287,305.268 107.85,305.25C107.242,305.247 103.85,304.9 100.25,304.75C92.25,304.45 80.35,302.5 79.75,302.5C77.8,302.5 76,300.65 76,298.7C76,297.7 76.3,296.6 76.7,296.25C78.8,294.1 87.7,292.25 98.75,291.6C104.75,291.25 104.75,291.25 104.6,289.75C104.55,289.348 101.463,281.907 100.25,274C99.05,266.178 99.726,257.887 99.5,257.85C93.37,256.85 73.251,223.608 71.5,207.25C69.358,187.239 155.139,190.402 207.5,194.5C227.877,196.095 238.632,206.85 250.85,206.85C263.068,206.85 276.233,196.878 296.75,194.5C348.305,188.525 429.943,181.441 431.55,194.5C434.439,217.98 403.748,253.834 402.9,254.75C400.65,257.25 400.65,257.25 400.9,261.9C400.97,263.352 402.008,271.044 400.5,277.95C398.789,285.784 394.5,292.879 394.5,293.65C394.5,295.3 394.5,295.3 403.6,295.25C413.953,295.193 427.082,298.611 428.55,300C429.998,301.37 429.85,304 428.5,305.25C427.614,306.059 406.426,307.305 396.733,308.401C388.418,309.342 379.464,321.756 384.15,323.6C389.514,325.711 407.17,330.712 415.8,331.55C420.022,331.96 421.338,335.145 421.381,337.25C421.475,341.804 408.387,340.905 402.9,340.2C397.99,339.569 377.29,333.253 373.55,340.2C373.379,340.517 356.951,363.707 337.65,379C316.35,395.877 295.136,411.511 278.1,420.5C271.112,424.187 270.287,422.979 273.859,416C274.702,414.353 273.859,414.15 270.759,413.85C267.809,413.6 241.601,434.27 238.23,435.112ZM256.408,374.234C291.757,374.234 339.55,326.45 339.35,324.5C339.05,322.05 324.798,321.833 332.65,312.25C333.328,311.422 346.3,315.2 347.35,314.6C349.85,313.05 353.85,307.5 352.35,307.5C352,307.5 339.7,307.75 337.65,307.5C333.4,306.95 332.65,306.35 332.65,303.4C332.65,301.7 333.015,301.1 334.465,300.5C335.315,300.15 350.011,298.39 355.335,298.05C357.331,297.923 359.3,295.2 360,293.4C360.4,292.5 364.8,284.15 364.3,283.65C363.95,283.3 356.13,288.129 343.4,289.4C342.843,289.456 316.571,292.311 296.75,285.368C279.027,279.161 267.55,263.141 266.7,262.15C264.9,260.1 258.798,249.415 257,243.2C256.572,241.72 254.8,239.5 253.15,239.5C251.7,239.5 248.944,239.972 247.6,243.2C247.465,243.523 244.05,252.8 242.75,255.35C241.707,257.388 231.927,272.651 216.7,281.236C200.542,290.346 178.684,292.709 170.2,291.5C162.059,290.339 137.422,285.176 135.116,284.31C133.454,283.685 131.572,284.209 131.572,285.368C131.572,289.645 134.311,292.579 135.116,293.4C139.358,297.725 152.555,295.804 154.15,298.7C156.289,302.585 150.717,303.348 144.15,304.85C141.943,305.355 141.55,305.65 142.7,306.95C143.1,307.4 143.95,308.75 144.65,310C145.9,312.25 145.9,312.25 150.9,312.25C156.9,312.25 158.65,313.1 158.9,316.15C159.05,317.8 158.85,318.1 156.05,320.35C153.05,322.75 153.05,322.75 154.15,324.5C154.579,325.218 162.563,341.164 181.8,352.75C203.177,365.625 221.059,374.234 256.408,374.234ZM323.326,246.85C323.86,246.982 335.15,237 337.65,237C339.65,237 339.65,237 339.35,240.7C339.15,242.7 338.85,244.75 338.7,245.25C338.05,246.9 340.05,245.25 347.9,237.6C353.7,231.9 362.507,218.479 362.85,217.9C365.298,213.773 355.094,208.551 347.25,213.75C342.533,216.876 320.71,246.205 323.326,246.85ZM178.45,242C181.6,242 181.45,248.5 181.8,248.5C182.1,248.5 198.45,232.45 200.25,229.8C201.35,228.2 202.75,226.4 203.35,225.8C204.85,224.4 204.8,223.95 203.05,222.8C201.6,221.8 190.277,215.626 186.203,219.7C184.586,221.317 165.373,247.104 167.5,251.55C167.905,252.397 168.15,251.55 170.2,249.4C173.6,245.9 175.35,242 178.45,242Z" style="fill:white;fill-rule:nonzero;"/>
                    <path d="M229.75,320.55C215.834,317.139 222.303,298.795 230.2,299.5C231.395,299.607 231.5,299.3 231.5,297.5C231.5,295.05 233.788,292.034 235.5,291.2C244.175,286.973 264.95,289.75 267.75,290.8C268.85,291.25 269.9,291.85 270.1,292.15C270.3,292.5 270.5,294.15 270.5,295.8C270.5,298.9 270.5,298.9 273.35,299.25C277.1,299.7 277.3,299.8 278.5,301.8C279.3,303.25 279.5,304.4 279.5,308.15C279.45,312.4 279.35,312.9 278.05,314.65C274.45,319.4 270.05,321.25 261.25,321.7C256.85,321.95 256.05,317.85 254.6,317C252.55,315.75 251.95,315.75 250.35,317C249.2,317.9 248.35,322 240.9,322C233.05,321.95 232.857,321.312 229.75,320.55Z" style="fill:white;fill-rule:nonzero;"/>
                    <path d="M115.9,182.2C108.344,181.782 111.538,167.236 107.25,166.05C99.921,164.023 111.79,75.327 130.6,72C151.986,68.217 216.549,140.542 216.75,138.5C217.077,135.183 271.216,129.015 277.5,136.3C282.455,142.045 354.957,49.223 367.65,50.05C380.179,50.866 380.456,43 385.8,43C389.15,43 392.6,44.25 395.35,46.45C396.8,47.6 405.462,54.568 407.457,88.593C408.072,99.075 407.97,106.406 404.974,120.406C401.761,135.417 395.975,115.222 395.35,120.406C393.633,134.65 389.248,158.768 388.8,160.65C386.137,171.838 384.221,182.659 371.503,182.75C368.803,182.769 363.947,178.253 363.5,171.2C363.369,169.134 364.856,106.166 358.65,109.45C358.156,109.711 304.95,163.15 296,163.2C289.85,163.25 283.665,160.574 280.25,158.9C276.52,157.071 226.394,156.176 226,161.4C225.688,165.533 209.149,175.082 202.25,168.4C192.903,159.347 153.794,120.895 145.21,113.189C143.757,111.885 138.593,169.194 137.95,170.7C136.373,174.392 133.017,165.419 130.6,167.2C124.423,171.753 126.337,182.777 115.9,182.2Z" style="fill:white;fill-rule:nonzero;"/>
                </g>
            </g>
            <g transform="matrix(1.43462,0,0,1.43462,471.095,194.043)">
                <path d="M21.732,72.343C17.393,72.343 13.102,71.553 8.861,69.975C4.62,68.397 0.757,66.096 -2.728,63.071L5.656,53.109C8.088,55.082 10.768,56.693 13.694,57.942C16.62,59.192 19.628,59.816 22.719,59.816C25.809,59.816 28.094,59.29 29.574,58.238C31.053,57.186 31.793,55.838 31.793,54.194C31.793,52.682 31.398,51.482 30.609,50.594C29.82,49.707 28.67,48.917 27.157,48.227C25.645,47.537 23.87,46.764 21.831,45.909L13.546,42.358C11.179,41.438 8.943,40.205 6.839,38.66C4.735,37.115 3.042,35.208 1.76,32.939C0.477,30.671 -0.164,27.958 -0.164,24.802C-0.164,21.251 0.839,18.046 2.845,15.185C4.85,12.325 7.612,10.024 11.13,8.281C14.647,6.539 18.741,5.667 23.409,5.667C27.289,5.667 31.103,6.391 34.851,7.837C38.599,9.284 41.919,11.388 44.812,14.15L37.415,23.323C35.179,21.679 32.944,20.413 30.708,19.525C28.472,18.638 25.776,18.194 22.62,18.194C20.253,18.194 18.313,18.687 16.801,19.673C15.289,20.659 14.532,22.106 14.532,24.013C14.532,25.262 14.993,26.314 15.913,27.169C16.834,28.024 18.083,28.78 19.661,29.438C21.239,30.095 23.048,30.819 25.086,31.608L32.878,34.961C35.771,36.013 38.237,37.312 40.275,38.857C42.314,40.402 43.892,42.293 45.01,44.528C46.127,46.764 46.686,49.394 46.686,52.419C46.686,55.97 45.716,59.257 43.777,62.282C41.837,65.307 39.009,67.74 35.294,69.581C31.579,71.422 27.059,72.343 21.732,72.343Z" style="fill:white;fill-rule:nonzero;"/>
                <path d="M49.448,71.159L69.47,6.851L86.829,6.851L106.852,71.159L91.465,71.159L83.18,38.61C82.391,35.388 81.536,31.969 80.616,28.353C79.695,24.736 78.84,21.251 78.051,17.898L77.657,17.898C76.868,21.251 76.046,24.736 75.191,28.353C74.336,31.969 73.481,35.388 72.626,38.61L64.243,71.159L49.448,71.159ZM62.665,55.871L62.665,44.528L93.438,44.528L93.438,55.871L62.665,55.871Z" style="fill:white;fill-rule:nonzero;"/>
                <path d="M110.501,71.159L110.501,6.851L125.69,6.851L132.003,29.635L134.173,38.512L134.567,38.512L136.737,29.635L143.05,6.851L158.239,6.851L158.239,71.159L146.009,71.159L146.009,51.235C146.009,49.46 146.074,47.241 146.206,44.578C146.337,41.915 146.502,39.136 146.699,36.243C146.896,33.35 147.11,30.588 147.34,27.958C147.57,25.328 147.751,23.158 147.883,21.449L147.587,21.449L142.655,38.61L137.723,54.096L130.622,54.096L125.592,38.61L120.956,21.449L120.66,21.449C120.792,23.158 120.973,25.328 121.203,27.958C121.433,30.588 121.646,33.35 121.844,36.243C122.041,39.136 122.205,41.915 122.337,44.578C122.468,47.241 122.534,49.46 122.534,51.235L122.534,71.159L110.501,71.159Z" style="fill:white;fill-rule:nonzero;"/>
                <path d="M190.59,72.343C185.461,72.343 180.957,71.06 177.078,68.496C173.198,65.931 170.173,62.167 168.003,57.203C165.834,52.238 164.749,46.074 164.749,38.709C164.749,31.542 165.834,25.509 168.003,20.61C170.173,15.711 173.198,11.996 177.078,9.465C180.957,6.933 185.461,5.667 190.59,5.667C195.719,5.667 200.223,6.933 204.103,9.465C207.982,11.996 211.007,15.711 213.177,20.61C215.347,25.509 216.432,31.542 216.432,38.709C216.432,46.074 215.347,52.238 213.177,57.203C211.007,62.167 207.982,65.931 204.103,68.496C200.223,71.06 195.719,72.343 190.59,72.343ZM190.59,59.816C192.826,59.816 194.766,59.011 196.409,57.4C198.053,55.789 199.319,53.422 200.207,50.298C201.094,47.175 201.538,43.312 201.538,38.709C201.538,34.238 201.094,30.49 200.207,27.465C199.319,24.44 198.053,22.139 196.409,20.561C194.766,18.983 192.826,18.194 190.59,18.194C188.354,18.194 186.415,18.983 184.771,20.561C183.127,22.139 181.861,24.44 180.974,27.465C180.086,30.49 179.642,34.238 179.642,38.709C179.642,43.312 180.086,47.175 180.974,50.298C181.861,53.422 183.127,55.789 184.771,57.4C186.415,59.011 188.354,59.816 190.59,59.816Z" style="fill:white;fill-rule:nonzero;"/>
                <path d="M246.613,72.343C242.273,72.343 237.983,71.553 233.742,69.975C229.5,68.397 225.637,66.096 222.152,63.071L230.536,53.109C232.969,55.082 235.648,56.693 238.574,57.942C241.501,59.192 244.509,59.816 247.599,59.816C250.69,59.816 252.975,59.29 254.454,58.238C255.934,57.186 256.673,55.838 256.673,54.194C256.673,52.682 256.279,51.482 255.49,50.594C254.701,49.707 253.55,48.917 252.038,48.227C250.525,47.537 248.75,46.764 246.712,45.909L238.427,42.358C236.059,41.438 233.824,40.205 231.72,38.66C229.615,37.115 227.922,35.208 226.64,32.939C225.358,30.671 224.717,27.958 224.717,24.802C224.717,21.251 225.719,18.046 227.725,15.185C229.73,12.325 232.492,10.024 236.01,8.281C239.528,6.539 243.621,5.667 248.29,5.667C252.169,5.667 255.983,6.391 259.731,7.837C263.479,9.284 266.8,11.388 269.693,14.15L262.295,23.323C260.06,21.679 257.824,20.413 255.588,19.525C253.353,18.638 250.657,18.194 247.501,18.194C245.133,18.194 243.194,18.687 241.681,19.673C240.169,20.659 239.413,22.106 239.413,24.013C239.413,25.262 239.873,26.314 240.794,27.169C241.714,28.024 242.964,28.78 244.542,29.438C246.12,30.095 247.928,30.819 249.966,31.608L257.758,34.961C260.652,36.013 263.117,37.312 265.156,38.857C267.194,40.402 268.772,42.293 269.89,44.528C271.008,46.764 271.567,49.394 271.567,52.419C271.567,55.97 270.597,59.257 268.657,62.282C266.717,65.307 263.89,67.74 260.175,69.581C256.46,71.422 251.939,72.343 246.613,72.343Z" style="fill:white;fill-rule:nonzero;"/>
                <path d="M295.732,71.159L295.732,19.081L276.498,19.081L276.498,6.851L329.562,6.851L329.562,19.081L310.329,19.081L310.329,71.159L295.732,71.159Z" style="fill:white;fill-rule:nonzero;"/>
                <path d="M359.448,72.343C355.502,72.343 352.067,71.767 349.141,70.616C346.215,69.466 343.782,67.789 341.842,65.586C339.902,63.383 338.439,60.688 337.453,57.498C336.467,54.309 335.973,50.611 335.973,46.402L335.973,6.851L350.472,6.851L350.472,47.882C350.472,50.446 350.801,52.616 351.459,54.392C352.116,56.167 353.102,57.515 354.417,58.435C355.733,59.356 357.409,59.816 359.448,59.816C361.486,59.816 363.179,59.356 364.527,58.435C365.875,57.515 366.878,56.167 367.536,54.392C368.193,52.616 368.522,50.446 368.522,47.882L368.522,6.851L382.528,6.851L382.528,46.402C382.528,50.611 382.067,54.309 381.147,57.498C380.226,60.688 378.796,63.383 376.856,65.586C374.916,67.789 372.5,69.466 369.607,70.616C366.714,71.767 363.327,72.343 359.448,72.343Z" style="fill:white;fill-rule:nonzero;"/>
                <path d="M392.785,71.159L392.785,6.851L410.539,6.851C416.786,6.851 422.227,7.969 426.863,10.205C431.498,12.44 435.098,15.909 437.663,20.61C440.227,25.312 441.509,31.345 441.509,38.709C441.509,46.074 440.244,52.156 437.712,56.956C435.18,61.756 431.646,65.323 427.109,67.658C422.572,69.992 417.345,71.159 411.427,71.159L392.785,71.159ZM407.383,59.422L409.75,59.422C413.169,59.422 416.128,58.764 418.627,57.449C421.125,56.134 423.082,53.964 424.495,50.939C425.909,47.915 426.616,43.838 426.616,38.709C426.616,33.58 425.909,29.553 424.495,26.627C423.082,23.701 421.125,21.629 418.627,20.413C416.128,19.196 413.169,18.588 409.75,18.588L407.383,18.588L407.383,59.422Z" style="fill:white;fill-rule:nonzero;"/>
                <path d="M471.888,72.343C467.943,72.343 464.507,71.767 461.581,70.616C458.655,69.466 456.222,67.789 454.282,65.586C452.342,63.383 450.879,60.688 449.893,57.498C448.907,54.309 448.414,50.611 448.414,46.402L448.414,6.851L462.912,6.851L462.912,47.882C462.912,50.446 463.241,52.616 463.899,54.392C464.556,56.167 465.543,57.515 466.858,58.435C468.173,59.356 469.85,59.816 471.888,59.816C473.926,59.816 475.62,59.356 476.967,58.435C478.315,57.515 479.318,56.167 479.976,54.392C480.633,52.616 480.962,50.446 480.962,47.882L480.962,6.851L494.968,6.851L494.968,46.402C494.968,50.611 494.507,54.309 493.587,57.498C492.666,60.688 491.236,63.383 489.296,65.586C487.357,67.789 484.94,69.466 482.047,70.616C479.154,71.767 475.767,72.343 471.888,72.343Z" style="fill:white;fill-rule:nonzero;"/>
                <path d="M525.248,72.343C521.697,72.343 517.998,71.553 514.152,69.975C510.305,68.397 506.968,65.636 504.141,61.69L512.524,52.715C514.365,55.016 516.338,56.775 518.442,57.992C520.546,59.208 522.65,59.816 524.755,59.816C528.042,59.816 530.525,58.961 532.201,57.252C533.878,55.542 534.716,52.485 534.716,48.079L534.716,18.983L509.565,18.983L509.565,6.851L549.215,6.851L549.215,49.263C549.215,53.471 548.443,57.318 546.897,60.803C545.352,64.288 542.853,67.082 539.401,69.186C535.949,71.29 531.231,72.343 525.248,72.343Z" style="fill:white;fill-rule:nonzero;"/>
            </g>
        </g>
    </g>
</svg>
