<?xml version="1.0" encoding="UTF-8" standalone="no"?>
<!DOCTYPE svg PUBLIC "-//W3C//DTD SVG 1.1//EN" "http://www.w3.org/Graphics/SVG/1.1/DTD/svg11.dtd">
<svg width="100%" height="100%" viewBox="0 0 361 393" version="1.1" xmlns="http://www.w3.org/2000/svg" xmlns:xlink="http://www.w3.org/1999/xlink" xml:space="preserve" xmlns:serif="http://www.serif.com/" style="fill-rule:evenodd;clip-rule:evenodd;stroke-linejoin:round;stroke-miterlimit:2;">
    <g transform="matrix(1,0,0,1,-71.4606,-43)">
        <g>
            <g>
                <path d="M238.23,435.112C229.993,437.168 231,430.8 231,428.6C231,426.45 233.35,423.35 236.05,421.95C237.15,421.45 244.75,416.5 246.5,414.25C248.6,411.6 249.654,409.242 247.6,410.203C246.007,410.948 234.3,417.5 232.55,417.5C229.75,417.5 228.5,416.4 228.5,413.85C228.5,411.65 229.771,409.867 230.9,409C233.074,407.33 249.7,397.35 250.85,396.55C252.95,395.15 252.95,395.15 247.85,394.8C245.935,394.671 221.594,392.962 197.512,384C175.072,375.649 152.907,360.15 147.977,356.25C136.742,347.362 127.459,337.025 125.05,334.8C123.1,333 122.85,332.9 121.6,333.5C119.45,334.5 100.95,340.25 92.75,340.25C82.9,340.25 82.5,340.1 82.5,336.25C82.5,330.409 108.75,321.3 110.4,321C114.3,320.2 114.561,318.5 114.45,316.6C114.251,313.204 111.287,305.268 107.85,305.25C107.242,305.247 103.85,304.9 100.25,304.75C92.25,304.45 80.35,302.5 79.75,302.5C77.8,302.5 76,300.65 76,298.7C76,297.7 76.3,296.6 76.7,296.25C78.8,294.1 87.7,292.25 98.75,291.6C104.75,291.25 104.75,291.25 104.6,289.75C104.55,289.348 101.463,281.907 100.25,274C99.05,266.178 99.726,257.887 99.5,257.85C93.37,256.85 73.251,223.608 71.5,207.25C69.358,187.239 155.139,190.402 207.5,194.5C227.877,196.095 238.632,206.85 250.85,206.85C263.068,206.85 276.233,196.878 296.75,194.5C348.305,188.525 429.943,181.441 431.55,194.5C434.439,217.98 403.748,253.834 402.9,254.75C400.65,257.25 400.65,257.25 400.9,261.9C400.97,263.352 402.008,271.044 400.5,277.95C398.789,285.784 394.5,292.879 394.5,293.65C394.5,295.3 394.5,295.3 403.6,295.25C413.953,295.193 427.082,298.611 428.55,300C429.998,301.37 429.85,304 428.5,305.25C427.614,306.059 406.426,307.305 396.733,308.401C388.418,309.342 379.464,321.756 384.15,323.6C389.514,325.711 407.17,330.712 415.8,331.55C420.022,331.96 421.338,335.145 421.381,337.25C421.475,341.804 408.387,340.905 402.9,340.2C397.99,339.569 377.29,333.253 373.55,340.2C373.379,340.517 356.951,363.707 337.65,379C316.35,395.877 295.136,411.511 278.1,420.5C271.112,424.187 270.287,422.979 273.859,416C274.702,414.353 273.859,414.15 270.759,413.85C267.809,413.6 241.601,434.27 238.23,435.112ZM256.408,374.234C291.757,374.234 339.55,326.45 339.35,324.5C339.05,322.05 324.798,321.833 332.65,312.25C333.328,311.422 346.3,315.2 347.35,314.6C349.85,313.05 353.85,307.5 352.35,307.5C352,307.5 339.7,307.75 337.65,307.5C333.4,306.95 332.65,306.35 332.65,303.4C332.65,301.7 333.015,301.1 334.465,300.5C335.315,300.15 350.011,298.39 355.335,298.05C357.331,297.923 359.3,295.2 360,293.4C360.4,292.5 364.8,284.15 364.3,283.65C363.95,283.3 356.13,288.129 343.4,289.4C342.843,289.456 316.571,292.311 296.75,285.368C279.027,279.161 267.55,263.141 266.7,262.15C264.9,260.1 258.798,249.415 257,243.2C256.572,241.72 254.8,239.5 253.15,239.5C251.7,239.5 248.944,239.972 247.6,243.2C247.465,243.523 244.05,252.8 242.75,255.35C241.707,257.388 231.927,272.651 216.7,281.236C200.542,290.346 178.684,292.709 170.2,291.5C162.059,290.339 137.422,285.176 135.116,284.31C133.454,283.685 131.572,284.209 131.572,285.368C131.572,289.645 134.311,292.579 135.116,293.4C139.358,297.725 152.555,295.804 154.15,298.7C156.289,302.585 150.717,303.348 144.15,304.85C141.943,305.355 141.55,305.65 142.7,306.95C143.1,307.4 143.95,308.75 144.65,310C145.9,312.25 145.9,312.25 150.9,312.25C156.9,312.25 158.65,313.1 158.9,316.15C159.05,317.8 158.85,318.1 156.05,320.35C153.05,322.75 153.05,322.75 154.15,324.5C154.579,325.218 162.563,341.164 181.8,352.75C203.177,365.625 221.059,374.234 256.408,374.234ZM323.326,246.85C323.86,246.982 335.15,237 337.65,237C339.65,237 339.65,237 339.35,240.7C339.15,242.7 338.85,244.75 338.7,245.25C338.05,246.9 340.05,245.25 347.9,237.6C353.7,231.9 362.507,218.479 362.85,217.9C365.298,213.773 355.094,208.551 347.25,213.75C342.533,216.876 320.71,246.205 323.326,246.85ZM178.45,242C181.6,242 181.45,248.5 181.8,248.5C182.1,248.5 198.45,232.45 200.25,229.8C201.35,228.2 202.75,226.4 203.35,225.8C204.85,224.4 204.8,223.95 203.05,222.8C201.6,221.8 190.277,215.626 186.203,219.7C184.586,221.317 165.373,247.104 167.5,251.55C167.905,252.397 168.15,251.55 170.2,249.4C173.6,245.9 175.35,242 178.45,242Z" style="fill-rule:nonzero;"/>
                <path d="M229.75,320.55C215.834,317.139 222.303,298.795 230.2,299.5C231.395,299.607 231.5,299.3 231.5,297.5C231.5,295.05 233.788,292.034 235.5,291.2C244.175,286.973 264.95,289.75 267.75,290.8C268.85,291.25 269.9,291.85 270.1,292.15C270.3,292.5 270.5,294.15 270.5,295.8C270.5,298.9 270.5,298.9 273.35,299.25C277.1,299.7 277.3,299.8 278.5,301.8C279.3,303.25 279.5,304.4 279.5,308.15C279.45,312.4 279.35,312.9 278.05,314.65C274.45,319.4 270.05,321.25 261.25,321.7C256.85,321.95 256.05,317.85 254.6,317C252.55,315.75 251.95,315.75 250.35,317C249.2,317.9 248.35,322 240.9,322C233.05,321.95 232.857,321.312 229.75,320.55Z" style="fill-rule:nonzero;"/>
                <path d="M115.9,182.2C108.344,181.782 111.538,167.236 107.25,166.05C99.921,164.023 111.79,75.327 130.6,72C151.986,68.217 216.549,140.542 216.75,138.5C217.077,135.183 271.216,129.015 277.5,136.3C282.455,142.045 354.957,49.223 367.65,50.05C380.179,50.866 380.456,43 385.8,43C389.15,43 392.6,44.25 395.35,46.45C396.8,47.6 405.462,54.568 407.457,88.593C408.072,99.075 407.97,106.406 404.974,120.406C401.761,135.417 395.975,115.222 395.35,120.406C393.633,134.65 389.248,158.768 388.8,160.65C386.137,171.838 384.221,182.659 371.503,182.75C368.803,182.769 363.947,178.253 363.5,171.2C363.369,169.134 364.856,106.166 358.65,109.45C358.156,109.711 304.95,163.15 296,163.2C289.85,163.25 283.665,160.574 280.25,158.9C276.52,157.071 226.394,156.176 226,161.4C225.688,165.533 209.149,175.082 202.25,168.4C192.903,159.347 153.794,120.895 145.21,113.189C143.757,111.885 138.593,169.194 137.95,170.7C136.373,174.392 133.017,165.419 130.6,167.2C124.423,171.753 126.337,182.777 115.9,182.2Z" style="fill-rule:nonzero;"/>
            </g>
        </g>
    </g>
</svg>
